<svg id="svg" version="1.1" xmlns="http://www.w3.org/2000/svg" xmlns:xlink="http://www.w3.org/1999/xlink" width="400" height="435.6435643564356" viewBox="0, 0, 400,435.6435643564356"><g id="svgg"><path id="path0" d="M199.200 45.538 C 199.200 45.724,199.605 46.219,200.100 46.638 L 201.000 47.400 200.276 46.541 C 199.716 45.879,199.671 45.635,200.076 45.473 C 200.418 45.336,200.357 45.252,199.900 45.232 C 199.515 45.214,199.200 45.352,199.200 45.538 M204.400 51.800 C 205.146 52.570,205.847 53.200,205.957 53.200 C 206.067 53.200,205.546 52.570,204.800 51.800 C 204.054 51.030,203.353 50.400,203.243 50.400 C 203.133 50.400,203.654 51.030,204.400 51.800 M169.328 64.400 C 169.328 65.830,169.401 66.415,169.489 65.700 C 169.578 64.985,169.578 63.815,169.489 63.100 C 169.401 62.385,169.328 62.970,169.328 64.400 M48.690 71.478 C 48.298 71.580,48.029 71.963,48.090 72.331 C 48.266 73.400,46.168 73.461,45.602 72.403 C 45.214 71.679,44.897 71.590,43.375 71.779 C 42.399 71.901,40.787 72.102,39.792 72.226 C 38.798 72.350,38.081 72.607,38.198 72.797 C 38.316 72.987,38.004 73.266,37.506 73.416 C 37.008 73.567,35.489 74.197,34.132 74.818 C 32.774 75.438,31.024 76.121,30.243 76.337 C 28.591 76.793,27.558 77.874,24.833 82.000 C 21.873 86.480,21.810 87.139,24.369 86.893 C 25.484 86.786,26.622 86.881,26.898 87.103 C 27.174 87.326,27.997 87.635,28.727 87.792 C 30.540 88.179,30.796 89.101,29.420 90.284 C 28.304 91.244,27.990 91.263,25.000 90.549 C 24.126 90.341,25.120 91.356,26.157 91.731 C 26.454 91.839,26.380 92.269,25.933 93.033 L 25.267 94.173 27.733 95.424 C 29.090 96.113,31.067 96.927,32.128 97.233 C 33.982 97.770,34.154 97.951,36.644 101.996 C 38.068 104.308,39.406 106.470,39.619 106.800 C 39.831 107.130,40.130 107.670,40.283 108.000 C 40.435 108.330,41.359 109.950,42.336 111.600 C 45.450 116.861,46.424 118.837,46.144 119.325 C 45.994 119.586,46.014 119.672,46.187 119.515 C 46.361 119.359,47.335 119.894,48.351 120.705 C 52.129 123.718,63.600 133.687,63.600 133.957 C 63.600 134.111,65.672 137.357,68.204 141.172 C 71.817 146.614,73.057 148.849,73.965 151.553 C 74.601 153.449,75.307 155.450,75.532 156.000 C 75.758 156.550,76.420 158.350,77.004 160.000 C 77.587 161.650,78.221 163.360,78.412 163.800 C 79.162 165.525,80.000 168.476,80.000 169.390 C 80.000 169.920,80.180 170.464,80.400 170.600 C 80.620 170.736,80.800 171.176,80.800 171.578 C 80.800 171.979,81.057 173.184,81.371 174.254 C 81.685 175.324,82.231 177.280,82.584 178.600 C 83.785 183.090,84.776 185.982,86.423 189.800 C 86.612 190.240,87.774 193.120,89.004 196.200 C 92.772 205.638,92.733 205.556,96.290 211.297 C 97.890 213.880,99.200 216.153,99.200 216.348 C 99.200 216.543,99.458 216.917,99.774 217.179 C 100.090 217.441,100.459 218.160,100.595 218.777 C 100.909 220.207,101.769 220.992,106.200 223.897 C 108.180 225.195,111.060 227.155,112.600 228.253 C 116.376 230.945,120.640 233.201,121.937 233.194 C 122.652 233.190,122.829 233.080,122.479 232.857 C 121.931 232.509,125.704 229.600,126.703 229.600 C 126.977 229.600,127.200 229.432,127.200 229.227 C 127.200 228.824,128.737 228.195,129.415 228.320 C 129.855 228.401,131.447 226.009,131.292 225.500 C 131.241 225.335,131.425 225.245,131.700 225.300 C 131.975 225.355,132.175 225.087,132.145 224.704 C 132.115 224.322,132.226 224.092,132.392 224.195 C 132.557 224.297,133.027 223.980,133.436 223.491 C 133.844 223.001,133.923 222.825,133.609 223.100 C 133.296 223.375,132.894 223.600,132.716 223.600 C 132.410 223.600,135.880 218.582,137.193 217.126 C 137.527 216.756,138.250 215.586,138.800 214.526 C 139.350 213.467,139.935 212.540,140.100 212.467 C 140.265 212.393,140.400 212.078,140.400 211.767 C 140.400 211.455,140.662 211.200,140.981 211.200 C 142.606 211.200,145.086 195.909,145.847 181.200 C 145.983 178.563,145.926 177.196,145.692 177.526 C 145.446 177.875,145.228 176.795,145.047 174.326 C 144.751 170.284,144.410 167.071,143.411 158.915 C 142.808 153.993,142.810 153.401,143.440 150.315 C 143.813 148.492,144.201 146.190,144.305 145.200 C 144.408 144.210,144.672 143.287,144.892 143.148 C 145.136 142.994,145.313 139.532,145.346 134.286 C 145.376 129.551,145.535 125.760,145.700 125.862 C 145.865 125.964,145.995 124.912,145.988 123.524 L 145.976 121.000 142.579 117.200 C 134.302 107.939,128.873 93.138,128.062 77.621 L 127.800 72.600 125.771 72.650 C 123.228 72.712,119.264 74.364,120.724 74.754 C 122.292 75.172,121.907 75.648,119.000 76.886 C 117.460 77.542,115.732 78.325,115.160 78.626 C 114.589 78.927,112.969 79.255,111.560 79.354 C 110.152 79.453,107.328 79.745,105.284 80.003 C 102.609 80.341,101.422 80.351,101.046 80.038 C 100.758 79.799,98.650 79.416,96.361 79.187 C 94.073 78.957,91.876 78.671,91.481 78.552 C 91.085 78.432,88.965 78.340,86.769 78.348 C 84.337 78.357,82.868 78.213,83.012 77.981 C 83.141 77.772,83.065 77.600,82.841 77.600 C 82.618 77.600,81.527 77.065,80.418 76.410 C 79.308 75.756,78.400 75.375,78.400 75.563 C 78.400 75.751,76.915 75.180,75.100 74.294 C 72.353 72.953,71.050 72.587,67.320 72.106 L 62.841 71.528 61.403 72.625 L 59.965 73.722 57.082 73.196 C 55.497 72.908,54.020 72.546,53.800 72.393 C 53.416 72.127,49.776 71.151,49.523 71.246 C 49.455 71.272,49.080 71.376,48.690 71.478 M69.200 80.873 C 71.070 81.115,73.500 81.463,74.600 81.646 C 77.263 82.090,85.721 83.149,90.200 83.600 C 100.830 84.671,103.537 85.185,101.888 85.820 C 101.497 85.971,100.057 85.989,98.688 85.860 C 97.320 85.731,93.770 85.448,90.800 85.231 C 85.128 84.816,79.559 84.224,75.200 83.571 C 71.038 82.949,62.107 82.539,58.200 82.791 C 54.248 83.046,54.041 82.929,60.783 84.255 C 63.807 84.849,72.107 85.808,79.400 86.405 C 83.304 86.724,87.941 87.237,94.000 88.018 C 95.650 88.231,97.527 88.404,98.172 88.403 C 98.816 88.401,99.919 88.608,100.623 88.863 C 101.541 89.195,102.481 89.211,103.953 88.920 C 105.468 88.620,106.174 88.639,106.658 88.993 C 107.826 89.847,106.221 90.045,101.648 89.613 C 99.312 89.392,94.340 88.933,90.600 88.592 C 83.777 87.971,79.127 87.505,72.800 86.805 C 70.930 86.598,67.870 86.324,66.000 86.194 C 64.130 86.065,61.790 85.790,60.800 85.583 C 59.810 85.376,56.759 84.851,54.019 84.416 C 48.836 83.593,45.513 82.328,45.274 81.089 C 45.072 80.042,61.622 79.893,69.200 80.873 M42.400 82.787 C 42.400 83.271,35.333 86.713,33.646 87.051 C 30.200 87.740,33.469 85.046,37.621 83.775 C 39.479 83.206,41.180 82.678,41.400 82.602 C 42.134 82.347,42.400 82.397,42.400 82.787 M232.994 339.070 C 232.197 339.229,232.190 339.444,232.332 359.915 C 232.434 374.447,232.325 382.325,231.968 386.400 C 231.688 389.590,231.479 393.100,231.503 394.200 C 231.535 395.659,231.466 395.930,231.248 395.200 C 230.980 394.305,230.919 394.383,230.663 395.942 C 230.506 396.900,230.084 398.250,229.727 398.942 C 229.197 399.966,229.186 400.109,229.667 399.710 C 230.171 399.292,230.233 399.397,230.083 400.415 C 229.987 401.072,229.749 401.708,229.554 401.829 C 228.316 402.593,230.877 403.594,234.081 403.598 C 235.988 403.600,237.685 404.128,238.830 405.076 C 239.727 405.819,243.782 406.115,246.600 405.644 C 248.791 405.277,248.666 405.261,245.162 405.454 L 241.325 405.665 241.045 400.133 C 240.168 382.790,239.611 365.139,239.606 354.500 C 239.602 345.881,239.472 342.400,239.155 342.400 C 238.698 342.400,238.825 340.813,239.386 339.500 C 239.682 338.809,235.657 338.538,232.994 339.070 M193.983 345.860 C 193.437 346.007,193.385 347.705,193.530 360.513 C 193.706 375.965,193.174 390.071,192.207 395.562 C 191.882 397.411,191.717 399.391,191.840 399.962 C 191.970 400.561,191.924 400.805,191.732 400.539 C 191.520 400.245,191.161 400.788,190.739 402.039 C 190.375 403.117,190.240 403.899,190.439 403.776 C 190.912 403.484,190.900 404.485,190.415 405.760 C 189.938 407.016,190.198 407.195,193.140 407.633 C 194.383 407.818,195.987 408.087,196.704 408.230 C 197.480 408.386,198.231 408.306,198.560 408.033 C 198.864 407.781,199.627 407.535,200.256 407.487 L 201.400 407.400 201.107 399.000 C 200.946 394.380,200.766 380.579,200.707 368.331 L 200.600 346.063 199.450 345.831 C 198.191 345.578,194.962 345.595,193.983 345.860 M389.800 391.400 C 386.940 391.679,382.800 392.053,380.600 392.231 C 378.400 392.409,377.050 392.630,377.600 392.722 C 378.550 392.882,391.244 391.886,396.800 391.216 L 399.400 390.902 397.200 390.897 C 395.990 390.894,392.660 391.120,389.800 391.400 M369.800 393.202 C 368.260 393.358,364.390 393.711,361.200 393.985 C 358.010 394.259,355.310 394.580,355.200 394.697 C 354.845 395.078,375.550 393.384,375.932 393.001 C 376.189 392.745,373.400 392.836,369.800 393.202 M348.400 395.203 C 346.750 395.358,342.700 395.731,339.400 396.032 C 336.100 396.333,333.850 396.650,334.400 396.738 C 335.401 396.896,348.655 395.794,352.800 395.208 C 355.791 394.785,352.885 394.781,348.400 395.203 M325.800 397.249 C 323.820 397.436,321.930 397.673,321.600 397.774 C 320.691 398.053,329.139 397.546,331.200 397.198 L 333.000 396.894 331.200 396.901 C 330.210 396.905,327.780 397.061,325.800 397.249 M314.200 398.400 L 312.200 398.674 314.400 398.702 C 315.610 398.717,317.500 398.590,318.600 398.418 L 320.600 398.107 318.400 398.116 C 317.190 398.121,315.300 398.249,314.200 398.400 M305.000 399.247 C 299.770 399.738,299.188 399.981,303.800 399.747 C 308.662 399.500,313.383 398.897,310.400 398.904 C 309.410 398.906,306.980 399.060,305.000 399.247 M288.600 400.832 C 280.319 401.723,278.702 402.003,283.200 401.768 C 286.560 401.592,292.340 401.026,297.000 400.416 L 299.400 400.102 297.400 400.101 C 296.300 400.101,292.340 400.429,288.600 400.832 M375.400 400.622 L 374.200 401.208 375.588 400.996 C 376.351 400.880,377.152 400.608,377.368 400.393 C 377.959 399.801,376.806 399.936,375.400 400.622 M271.400 402.595 C 268.980 402.871,265.560 403.234,263.800 403.403 C 262.040 403.571,260.856 403.800,261.169 403.911 C 261.705 404.101,272.794 403.086,277.600 402.407 L 279.800 402.097 277.800 402.095 C 276.700 402.094,273.820 402.319,271.400 402.595 M253.400 404.450 C 251.860 404.642,250.330 404.875,250.000 404.968 C 248.939 405.266,256.549 404.721,258.000 404.395 L 259.400 404.080 257.800 404.091 C 256.920 404.097,254.940 404.258,253.400 404.450 M220.100 405.476 C 220.485 405.576,221.115 405.576,221.500 405.476 C 221.885 405.375,221.570 405.293,220.800 405.293 C 220.030 405.293,219.715 405.375,220.100 405.476 M227.600 405.865 C 226.541 406.225,223.989 406.525,221.400 406.595 C 218.980 406.659,216.190 406.929,215.200 407.193 C 214.210 407.457,211.150 407.817,208.400 407.992 C 205.650 408.167,202.500 408.528,201.400 408.793 C 200.300 409.058,199.130 409.269,198.800 409.262 C 196.802 409.220,187.332 410.123,187.000 410.388 C 186.780 410.563,184.080 410.796,181.000 410.906 C 177.920 411.017,174.860 411.297,174.200 411.530 C 172.748 412.043,163.859 412.356,164.530 411.871 C 164.807 411.670,164.589 411.635,164.000 411.785 C 163.450 411.925,161.020 412.209,158.600 412.416 C 151.307 413.040,149.673 413.533,149.339 415.207 C 149.136 416.221,148.917 416.329,146.260 416.724 L 143.400 417.150 146.334 416.995 C 147.948 416.910,149.502 416.647,149.787 416.411 C 150.227 416.045,159.871 414.761,174.200 413.158 C 176.180 412.937,179.240 412.585,181.000 412.377 C 182.760 412.169,186.810 411.734,190.000 411.411 C 196.211 410.781,200.713 410.262,205.568 409.616 C 207.236 409.395,211.300 408.928,214.600 408.579 C 237.403 406.168,236.255 406.311,235.372 405.994 C 233.523 405.329,229.377 405.261,227.600 405.865 M179.400 409.600 L 177.800 409.886 179.400 409.903 C 180.280 409.913,181.450 409.776,182.000 409.600 L 183.000 409.280 182.000 409.297 C 181.450 409.306,180.280 409.442,179.400 409.600 M167.600 410.800 C 166.691 411.091,166.727 411.121,168.000 411.132 C 168.770 411.138,169.760 410.989,170.200 410.800 C 171.282 410.335,169.052 410.335,167.600 410.800 M381.026 414.758 C 380.710 415.270,381.762 415.587,382.840 415.305 C 383.704 415.079,383.712 415.048,382.979 414.761 C 381.899 414.338,381.286 414.338,381.026 414.758 M138.200 417.593 C 137.100 417.748,134.220 418.101,131.800 418.379 C 127.467 418.876,126.026 419.200,128.148 419.200 C 129.652 419.200,142.544 417.590,142.758 417.375 C 142.996 417.138,140.643 417.250,138.200 417.593 M328.200 419.077 C 327.320 419.174,326.429 419.421,326.220 419.627 C 326.011 419.832,325.312 420.000,324.666 420.000 C 324.021 420.000,322.842 420.171,322.046 420.379 C 319.283 421.104,315.390 421.946,313.614 422.205 C 311.514 422.510,309.241 423.557,310.620 423.584 C 311.071 423.593,311.651 423.811,311.909 424.069 C 312.268 424.428,312.686 424.391,313.689 423.914 C 315.453 423.074,317.675 422.400,318.680 422.400 C 319.694 422.400,322.255 421.358,322.596 420.806 C 322.923 420.278,325.877 420.278,326.204 420.807 C 326.573 421.404,327.203 420.874,326.940 420.187 C 326.798 419.818,326.958 419.600,327.370 419.600 C 327.730 419.600,328.129 419.870,328.255 420.200 C 328.518 420.885,330.000 421.025,330.000 420.365 C 330.000 420.081,330.541 420.021,331.559 420.193 C 333.005 420.437,334.100 419.956,333.268 419.442 C 332.699 419.091,329.908 418.890,328.200 419.077 M117.616 420.119 C 113.994 420.573,111.284 421.028,111.592 421.131 C 112.142 421.314,121.645 420.258,125.200 419.618 C 128.766 418.977,124.473 419.261,117.616 420.119 M105.000 421.655 C 103.460 421.850,102.020 422.093,101.800 422.196 C 101.193 422.478,107.346 421.957,108.868 421.597 L 110.200 421.282 109.000 421.292 C 108.340 421.297,106.540 421.461,105.000 421.655 M96.400 422.800 C 95.019 423.091,95.025 423.095,96.800 423.100 C 97.790 423.103,99.140 422.968,99.800 422.800 C 101.483 422.372,98.435 422.372,96.400 422.800 M382.667 422.667 C 382.119 423.214,382.431 423.483,383.400 423.298 C 383.950 423.193,384.400 422.948,384.400 422.753 C 384.400 422.342,383.059 422.275,382.667 422.667 M90.000 423.635 C 83.412 424.470,79.519 425.110,80.767 425.153 C 82.061 425.197,89.289 424.299,93.200 423.608 C 95.617 423.180,93.439 423.199,90.000 423.635 M74.200 425.655 C 72.660 425.850,71.220 426.093,71.000 426.196 C 70.393 426.478,76.546 425.957,78.068 425.597 L 79.400 425.282 78.200 425.292 C 77.540 425.297,75.740 425.461,74.200 425.655 M252.900 425.476 C 253.285 425.576,253.915 425.576,254.300 425.476 C 254.685 425.375,254.370 425.293,253.600 425.293 C 252.830 425.293,252.515 425.375,252.900 425.476 M365.000 426.400 C 364.853 426.638,365.329 426.800,366.176 426.800 C 366.959 426.800,367.600 426.620,367.600 426.400 C 367.600 426.180,367.071 426.000,366.424 426.000 C 365.777 426.000,365.136 426.180,365.000 426.400 M65.800 426.800 L 64.200 427.086 65.800 427.120 C 66.680 427.139,68.120 427.005,69.000 426.823 L 70.600 426.492 69.000 426.503 C 68.120 426.509,66.680 426.642,65.800 426.800 M60.800 427.472 C 60.250 427.556,58.090 427.775,56.000 427.957 L 52.200 428.290 55.200 428.320 C 56.850 428.336,59.550 428.114,61.200 427.825 C 63.819 427.367,63.475 427.064,60.800 427.472 M353.400 428.274 C 351.045 428.479,350.000 428.766,350.000 429.208 C 350.000 429.754,353.743 429.700,354.981 429.136 C 356.036 428.655,356.379 427.949,355.500 428.067 C 355.225 428.104,354.280 428.197,353.400 428.274 M40.600 428.847 C 38.180 429.028,33.230 429.351,29.600 429.564 C 6.892 430.893,1.314 431.290,0.600 431.625 C 0.035 431.890,0.387 431.937,1.800 431.784 C 2.900 431.665,6.860 431.398,10.600 431.192 C 16.893 430.844,25.524 430.313,43.197 429.186 C 47.045 428.941,50.270 428.664,50.363 428.570 C 50.609 428.324,45.699 428.463,40.600 428.847 M299.200 429.033 C 299.200 429.740,300.061 429.617,300.308 428.875 C 300.395 428.614,300.182 428.400,299.833 428.400 C 299.485 428.400,299.200 428.685,299.200 429.033 M291.400 430.000 C 291.264 430.220,291.423 430.400,291.753 430.400 C 292.083 430.400,292.464 430.220,292.600 430.000 C 292.736 429.780,292.577 429.600,292.247 429.600 C 291.917 429.600,291.536 429.780,291.400 430.000 M369.784 431.227 C 369.639 431.461,369.616 431.749,369.733 431.867 C 370.020 432.153,370.800 431.648,370.800 431.176 C 370.800 430.665,370.109 430.699,369.784 431.227 M365.407 432.053 C 364.531 432.258,363.640 432.600,363.427 432.813 C 363.214 433.026,362.686 433.200,362.253 433.200 C 361.821 433.200,361.575 433.308,361.708 433.441 C 362.168 433.901,367.600 432.698,367.600 432.136 C 367.600 431.536,367.613 431.537,365.407 432.053 M142.976 432.987 C 142.018 433.712,142.396 433.717,145.200 433.017 L 147.400 432.468 145.576 432.434 C 144.542 432.415,143.417 432.654,142.976 432.987 M355.600 434.000 C 355.150 434.291,355.350 434.388,356.400 434.388 C 357.450 434.388,357.650 434.291,357.200 434.000 C 356.870 433.787,356.510 433.612,356.400 433.612 C 356.290 433.612,355.930 433.787,355.600 434.000 M324.003 434.596 C 323.719 434.939,323.610 435.344,323.762 435.496 C 324.101 435.834,325.262 435.148,325.261 434.610 C 325.259 433.948,324.547 433.941,324.003 434.596 M351.400 434.685 C 349.952 435.034,349.778 435.600,351.120 435.600 C 351.824 435.600,352.400 435.432,352.400 435.227 C 352.400 435.021,352.895 434.778,353.500 434.687 C 354.584 434.522,354.583 434.520,353.400 434.506 C 352.740 434.499,351.840 434.579,351.400 434.685 " stroke="none" fill="#bd964f" fill-rule="evenodd"></path><path id="path1" d="M0.000 215.775 L 0.000 431.550 1.300 431.373 C 2.682 431.185,17.971 430.222,29.600 429.590 C 33.450 429.381,37.500 429.117,38.600 429.005 C 39.700 428.892,44.110 428.613,48.400 428.385 C 56.369 427.961,59.508 427.667,67.600 426.587 C 70.130 426.250,74.270 425.708,76.800 425.384 C 79.330 425.060,83.380 424.531,85.800 424.208 C 88.220 423.885,92.360 423.342,95.000 423.001 C 97.640 422.660,101.150 422.204,102.800 421.988 C 104.450 421.771,111.740 420.877,119.000 420.000 C 126.260 419.123,133.550 418.225,135.200 418.003 C 140.416 417.303,147.913 416.400,148.518 416.400 C 148.838 416.400,149.203 415.886,149.329 415.257 C 149.668 413.560,153.665 412.431,159.414 412.408 C 160.521 412.404,162.425 412.049,163.644 411.621 C 165.492 410.971,171.687 410.062,181.200 409.044 C 189.620 408.143,191.669 404.090,193.052 385.600 C 193.931 373.846,193.708 347.034,192.718 345.523 C 191.195 343.199,185.650 341.108,179.191 340.421 C 175.135 339.990,170.645 339.097,169.000 338.393 C 168.560 338.204,167.750 337.930,167.200 337.783 C 157.653 335.227,145.716 323.558,140.826 312.000 C 140.314 310.790,139.465 308.858,138.939 307.708 C 137.661 304.909,135.007 297.095,133.741 292.400 C 127.650 269.829,130.955 260.456,152.788 238.372 C 159.389 231.694,160.085 230.889,160.887 229.000 C 162.559 225.060,162.535 225.663,162.698 182.945 L 162.856 141.691 159.528 141.266 C 157.698 141.032,155.390 140.751,154.400 140.642 C 153.410 140.532,151.250 139.969,149.600 139.392 C 144.651 137.658,145.071 137.634,145.344 139.641 C 145.608 141.585,146.514 166.164,146.566 172.800 C 146.584 175.110,146.279 180.060,145.888 183.800 C 145.498 187.540,145.009 192.310,144.801 194.400 C 144.253 199.906,143.694 203.387,142.794 206.889 C 142.357 208.589,142.000 210.392,142.000 210.898 C 142.000 212.152,138.931 217.298,136.186 220.646 C 134.944 222.161,132.478 225.343,130.706 227.719 C 125.077 235.264,122.132 235.340,112.400 228.189 C 110.530 226.816,107.470 224.683,105.600 223.450 C 99.084 219.154,99.437 219.542,94.992 211.800 C 91.898 206.412,90.036 202.536,87.593 196.400 C 85.797 191.890,84.101 187.660,83.824 187.000 C 82.844 184.667,82.418 183.359,81.412 179.600 C 78.084 167.158,77.552 165.360,75.730 160.400 C 74.306 156.525,74.072 155.901,72.199 151.000 C 70.802 147.343,62.516 134.970,59.793 132.476 C 58.667 131.444,56.326 129.340,54.591 127.800 C 46.579 120.689,45.474 119.617,43.657 117.200 C 43.078 116.430,42.513 115.710,42.401 115.600 C 41.525 114.737,33.646 104.580,32.240 102.500 C 31.608 101.565,30.953 100.800,30.783 100.800 C 29.999 100.800,24.400 96.625,24.400 96.041 C 24.400 95.681,24.850 94.723,25.400 93.914 C 26.713 91.982,26.707 91.963,24.499 90.800 L 22.600 89.800 22.487 87.400 C 22.293 83.289,29.049 74.430,33.426 73.054 C 37.333 71.827,44.838 71.471,45.630 72.475 C 46.398 73.450,48.257 73.351,48.093 72.345 C 47.957 71.512,49.440 71.114,51.019 71.559 C 51.911 71.810,52.396 71.724,53.000 71.205 C 54.417 69.989,61.425 69.056,66.698 69.381 C 71.851 69.698,73.153 70.202,75.639 72.841 C 76.446 73.698,77.304 74.400,77.546 74.400 C 77.787 74.400,78.938 75.010,80.103 75.755 C 81.997 76.966,82.773 77.180,87.411 77.763 C 90.265 78.122,93.911 78.618,95.514 78.867 C 100.041 79.568,110.346 78.584,110.610 77.425 C 113.484 64.827,117.283 56.926,124.182 49.200 C 131.812 40.654,138.144 36.920,151.640 33.012 C 157.088 31.434,168.290 31.139,174.600 32.406 C 176.800 32.848,179.590 33.395,180.800 33.623 C 185.522 34.509,191.033 37.068,196.562 40.943 C 198.962 42.624,201.212 44.000,201.562 44.000 C 203.104 44.001,209.848 47.053,210.774 48.169 C 211.585 49.146,210.750 48.997,205.237 47.180 C 199.171 45.181,199.112 45.202,201.858 48.400 C 209.524 57.328,209.819 57.744,211.385 61.836 C 213.250 66.705,213.424 66.913,214.460 65.500 C 215.845 63.612,216.363 64.029,217.569 68.000 C 217.803 68.770,218.258 70.240,218.581 71.267 C 221.767 81.396,220.640 98.456,216.129 108.400 C 214.081 112.914,213.805 113.458,212.268 116.000 C 207.047 124.639,193.188 136.800,188.564 136.800 C 187.380 136.800,188.035 221.628,189.246 224.976 C 189.725 226.300,189.834 226.359,192.172 226.555 C 200.661 227.267,207.414 227.608,213.000 227.604 C 216.520 227.602,221.380 227.788,223.799 228.018 C 229.041 228.515,233.568 228.073,238.000 226.632 C 244.253 224.599,252.986 223.651,266.362 223.555 C 269.793 223.531,274.310 223.396,276.400 223.255 C 283.873 222.753,299.000 223.950,310.800 225.977 C 312.010 226.185,314.620 226.626,316.600 226.958 C 324.669 228.310,327.879 228.873,329.400 229.203 C 330.280 229.394,335.050 230.313,340.000 231.245 C 353.196 233.729,354.139 234.318,351.593 238.490 C 348.876 242.941,337.003 258.156,330.080 266.059 C 325.468 271.323,324.390 271.421,317.424 267.215 C 301.764 257.757,293.850 257.823,286.481 267.474 L 285.128 269.246 285.599 273.392 C 287.336 288.679,285.767 310.660,282.481 317.054 C 282.270 317.464,281.820 318.450,281.482 319.245 C 280.542 321.448,277.487 326.010,275.751 327.800 C 272.302 331.358,267.450 335.094,264.565 336.416 C 258.156 339.351,254.952 340.403,250.600 341.001 C 248.264 341.322,242.772 342.245,240.900 342.632 L 239.600 342.900 239.600 354.550 C 239.600 369.235,240.647 397.028,241.453 403.738 L 241.685 405.676 244.943 405.418 C 246.734 405.277,249.460 404.991,251.000 404.783 C 252.540 404.575,255.600 404.233,257.800 404.024 C 261.547 403.667,273.890 402.407,287.200 401.023 C 290.390 400.691,295.070 400.228,297.600 399.993 C 300.130 399.759,304.990 399.297,308.400 398.967 C 311.810 398.636,316.400 398.199,318.600 397.994 C 320.800 397.789,327.460 397.167,333.400 396.610 C 339.340 396.054,346.270 395.420,348.800 395.200 C 351.330 394.980,355.110 394.628,357.200 394.417 C 361.038 394.029,364.385 393.715,376.400 392.616 C 391.990 391.191,396.710 390.800,398.305 390.800 L 400.000 390.800 400.000 195.400 L 400.000 0.000 200.000 0.000 L 0.000 0.000 0.000 215.775 M160.662 36.983 C 157.374 38.156,156.281 40.419,158.254 41.971 C 159.930 43.289,160.856 43.035,162.570 40.788 C 163.414 39.681,164.494 38.466,164.971 38.088 C 166.709 36.708,166.589 36.399,164.324 36.418 C 163.156 36.427,161.508 36.682,160.662 36.983 M166.705 56.303 C 160.574 62.557,161.910 71.439,169.705 76.243 C 172.846 78.179,172.889 78.066,171.073 72.600 C 169.535 67.969,169.473 67.575,169.308 61.400 C 169.107 53.863,169.103 53.856,166.705 56.303 M230.320 344.214 C 229.716 344.817,223.823 345.279,213.252 345.551 C 202.419 345.829,201.454 345.912,200.948 346.603 C 200.100 347.763,200.672 405.965,201.540 406.885 C 201.688 407.041,204.777 406.807,208.405 406.365 C 212.032 405.922,216.620 405.404,218.600 405.213 C 230.387 404.074,232.362 398.656,232.386 367.400 C 232.403 346.421,232.052 342.482,230.320 344.214 " stroke="none" fill="#70baeb" fill-rule="evenodd"></path><path id="path2" d="M169.346 58.200 C 169.347 60.400,169.414 61.249,169.495 60.087 C 169.576 58.924,169.576 57.124,169.493 56.087 C 169.411 55.049,169.345 56.000,169.346 58.200 M61.064 72.224 C 59.846 73.295,59.371 73.294,55.100 72.202 C 53.708 71.847,53.301 71.840,53.580 72.175 C 53.789 72.427,55.316 72.875,56.974 73.169 L 59.987 73.705 61.414 72.617 L 62.841 71.528 67.320 72.106 C 71.050 72.587,72.353 72.953,75.100 74.294 C 76.915 75.180,78.400 75.758,78.400 75.579 C 78.400 75.400,77.995 75.130,77.500 74.980 C 77.005 74.829,76.330 74.485,76.000 74.215 C 74.860 73.282,71.787 72.290,68.400 71.760 C 63.482 70.991,62.388 71.060,61.064 72.224 M37.200 72.811 C 35.285 73.822,31.081 75.600,30.606 75.600 C 30.299 75.600,29.920 75.806,29.764 76.058 C 29.367 76.701,30.966 76.259,34.075 74.867 C 35.464 74.245,37.039 73.557,37.576 73.338 C 38.112 73.120,38.382 72.840,38.176 72.718 C 37.969 72.595,37.530 72.637,37.200 72.811 M120.300 75.082 C 120.795 75.178,121.200 75.434,121.200 75.651 C 121.200 75.869,121.383 75.934,121.607 75.796 C 122.297 75.369,121.610 74.797,120.476 74.854 C 119.534 74.902,119.512 74.930,120.300 75.082 M118.000 76.870 C 117.450 77.098,116.190 77.614,115.200 78.017 C 114.004 78.503,111.282 78.915,107.090 79.244 C 103.243 79.547,100.924 79.884,101.149 80.109 C 101.374 80.334,102.978 80.293,105.259 80.006 C 107.316 79.746,110.152 79.453,111.560 79.354 C 112.969 79.255,114.589 78.934,115.160 78.640 C 115.732 78.347,117.010 77.734,118.000 77.278 C 119.829 76.436,119.829 76.110,118.000 76.870 M83.700 78.287 C 84.305 78.378,85.295 78.378,85.900 78.287 C 86.505 78.195,86.010 78.120,84.800 78.120 C 83.590 78.120,83.095 78.195,83.700 78.287 M45.272 81.077 C 45.513 82.328,48.819 83.590,54.019 84.416 C 56.759 84.851,59.810 85.376,60.800 85.583 C 61.790 85.790,64.130 86.065,66.000 86.194 C 67.870 86.324,70.930 86.598,72.800 86.805 C 79.127 87.505,83.777 87.971,90.600 88.592 C 94.340 88.933,99.312 89.392,101.648 89.613 C 106.221 90.045,107.826 89.847,106.658 88.993 C 106.174 88.639,105.468 88.620,103.953 88.920 C 102.481 89.211,101.541 89.195,100.623 88.863 C 99.919 88.608,98.816 88.401,98.172 88.403 C 97.527 88.404,95.650 88.231,94.000 88.018 C 87.941 87.237,83.304 86.724,79.400 86.405 C 72.107 85.808,63.807 84.849,60.783 84.255 C 54.041 82.929,54.248 83.046,58.200 82.791 C 62.107 82.539,71.038 82.949,75.200 83.571 C 79.559 84.224,85.128 84.816,90.800 85.231 C 93.770 85.448,97.320 85.731,98.688 85.860 C 100.057 85.989,101.497 85.971,101.888 85.820 C 103.537 85.185,100.830 84.671,90.200 83.600 C 85.608 83.138,77.249 82.092,74.400 81.623 C 68.249 80.610,66.243 80.420,62.200 80.462 L 57.800 80.508 64.600 81.018 C 68.340 81.298,73.527 81.904,76.127 82.364 C 78.726 82.824,81.460 83.200,82.203 83.200 C 82.945 83.200,83.663 83.378,83.798 83.596 C 84.083 84.058,81.346 83.861,74.000 82.891 C 67.440 82.025,53.748 81.952,51.281 82.770 C 49.684 83.300,49.435 83.279,47.781 82.476 C 45.115 81.180,45.557 80.842,50.100 80.698 L 54.200 80.569 49.671 80.484 C 45.605 80.409,45.155 80.469,45.272 81.077 M41.400 82.602 C 41.180 82.678,39.479 83.206,37.621 83.775 C 33.469 85.046,30.200 87.740,33.646 87.051 C 35.333 86.713,42.400 83.271,42.400 82.787 C 42.400 82.397,42.134 82.347,41.400 82.602 M36.800 85.200 C 35.590 85.839,34.336 86.371,34.014 86.381 C 32.938 86.416,34.444 85.326,36.400 84.656 C 39.112 83.725,39.246 83.908,36.800 85.200 M88.307 84.286 C 87.706 84.377,86.626 84.379,85.907 84.290 C 85.188 84.201,85.680 84.126,87.000 84.124 C 88.320 84.122,88.908 84.195,88.307 84.286 M23.045 87.128 C 22.933 87.308,23.391 87.375,24.061 87.276 C 25.472 87.069,29.600 88.356,29.600 89.003 C 29.600 89.883,28.597 90.401,26.820 90.440 L 25.000 90.480 26.588 90.852 C 29.647 91.569,31.707 88.650,28.733 87.813 C 27.926 87.586,27.131 87.265,26.966 87.100 C 26.561 86.694,23.298 86.717,23.045 87.128 M26.600 95.311 C 28.143 96.181,29.972 96.990,32.693 98.008 C 34.053 98.517,38.697 105.731,43.654 115.036 C 45.952 119.351,46.348 119.827,50.800 123.634 C 52.450 125.046,53.860 126.335,53.933 126.500 C 54.007 126.665,54.245 126.800,54.462 126.800 C 54.679 126.800,55.090 127.025,55.374 127.300 C 55.659 127.575,57.432 129.114,59.315 130.721 C 62.176 133.162,63.217 134.410,65.661 138.321 C 67.269 140.894,68.797 143.221,69.055 143.491 C 69.314 143.761,69.766 144.526,70.060 145.191 C 70.354 145.856,70.731 146.400,70.898 146.400 C 71.064 146.400,71.200 146.648,71.200 146.951 C 71.200 147.254,71.470 147.726,71.800 148.000 C 72.130 148.274,72.400 148.926,72.400 149.449 C 72.400 149.972,72.580 150.400,72.800 150.400 C 73.020 150.400,73.200 150.820,73.200 151.333 C 73.200 151.847,73.335 152.402,73.500 152.567 C 73.665 152.732,73.816 152.987,73.835 153.133 C 73.890 153.558,74.426 154.938,74.829 155.695 C 75.033 156.077,75.200 156.717,75.200 157.118 C 75.200 157.519,75.464 158.196,75.787 158.624 C 76.110 159.051,76.380 159.794,76.387 160.276 C 76.394 160.758,76.580 161.264,76.800 161.400 C 77.020 161.536,77.200 162.052,77.200 162.547 C 77.200 163.042,77.464 163.796,77.787 164.224 C 78.110 164.651,78.380 165.495,78.387 166.100 C 78.394 166.705,78.588 167.200,78.818 167.200 C 79.047 167.200,79.194 167.425,79.143 167.700 C 78.977 168.604,79.662 171.600,80.035 171.600 C 80.236 171.600,80.400 172.219,80.400 172.976 C 80.400 173.733,80.592 174.472,80.827 174.617 C 81.062 174.762,81.160 175.127,81.045 175.428 C 80.929 175.728,81.007 176.081,81.217 176.211 C 81.428 176.341,81.600 176.966,81.600 177.600 C 81.600 178.234,81.780 178.864,82.000 179.000 C 82.220 179.136,82.400 179.856,82.400 180.600 C 82.400 181.344,82.564 182.054,82.765 182.178 C 82.966 182.303,83.252 183.123,83.400 184.002 C 83.549 184.881,83.834 185.600,84.035 185.600 C 84.236 185.600,84.400 185.955,84.400 186.389 C 84.400 186.823,84.831 188.128,85.358 189.289 C 86.604 192.036,86.941 192.933,86.864 193.300 C 86.829 193.465,86.980 193.600,87.200 193.600 C 87.420 193.600,87.600 194.050,87.600 194.600 C 87.600 195.150,87.750 195.600,87.933 195.600 C 88.116 195.600,88.611 196.680,89.033 198.000 C 89.455 199.320,89.919 200.400,90.065 200.400 C 90.210 200.400,90.451 201.120,90.600 202.000 C 90.749 202.880,91.034 203.600,91.235 203.600 C 91.436 203.600,91.600 203.915,91.601 204.300 C 91.601 204.928,96.508 213.511,97.146 214.000 C 97.290 214.110,97.766 214.915,98.204 215.789 C 98.642 216.663,99.141 217.563,99.314 217.789 C 99.486 218.015,99.900 218.560,100.234 219.000 C 100.822 219.774,100.833 219.767,100.573 218.800 C 100.426 218.250,100.057 217.516,99.753 217.169 C 99.449 216.821,99.200 216.415,99.200 216.265 C 99.200 216.116,97.890 213.880,96.290 211.297 C 92.733 205.556,92.772 205.638,89.004 196.200 C 87.774 193.120,86.612 190.240,86.423 189.800 C 84.776 185.982,83.785 183.090,82.584 178.600 C 82.231 177.280,81.685 175.324,81.371 174.254 C 81.057 173.184,80.800 171.979,80.800 171.578 C 80.800 171.176,80.620 170.736,80.400 170.600 C 80.180 170.464,80.000 169.920,80.000 169.390 C 80.000 168.476,79.162 165.525,78.412 163.800 C 78.221 163.360,77.587 161.650,77.004 160.000 C 76.420 158.350,75.758 156.550,75.532 156.000 C 75.307 155.450,74.601 153.449,73.965 151.553 C 73.057 148.849,71.817 146.614,68.204 141.172 C 65.672 137.357,63.600 134.111,63.600 133.957 C 63.600 133.687,52.129 123.718,48.354 120.707 C 47.338 119.897,46.206 118.599,45.837 117.821 C 45.214 116.509,40.896 108.954,39.994 107.600 C 39.775 107.270,39.474 106.730,39.327 106.400 C 37.460 102.226,33.952 97.761,32.128 97.238 C 31.067 96.933,29.210 96.171,28.000 95.543 C 25.398 94.193,24.291 94.010,26.600 95.311 M145.309 127.200 C 145.309 128.190,145.387 128.595,145.482 128.100 C 145.578 127.605,145.578 126.795,145.482 126.300 C 145.387 125.805,145.309 126.210,145.309 127.200 M144.440 144.900 C 144.474 146.344,144.528 146.450,144.800 145.600 C 145.261 144.161,145.261 143.200,144.800 143.200 C 144.580 143.200,144.418 143.965,144.440 144.900 M144.046 146.865 C 144.021 147.010,143.727 148.540,143.393 150.265 C 142.782 153.421,143.170 161.612,144.033 163.800 C 144.564 165.143,144.478 163.386,143.767 158.314 C 143.182 154.141,143.185 153.584,143.804 150.941 C 144.173 149.368,144.388 147.748,144.284 147.341 C 144.179 146.933,144.072 146.719,144.046 146.865 M144.605 168.000 C 145.249 177.421,145.324 178.079,145.681 177.442 C 145.909 177.034,145.804 174.734,145.400 171.295 C 144.670 165.072,144.299 163.536,144.605 168.000 M140.400 211.767 C 140.400 212.078,140.265 212.393,140.100 212.467 C 139.935 212.540,139.350 213.467,138.800 214.526 C 138.250 215.586,137.527 216.756,137.193 217.126 C 135.817 218.652,132.417 223.600,132.745 223.600 C 133.361 223.600,136.446 219.998,136.188 219.580 C 136.052 219.360,136.179 219.230,136.470 219.290 C 136.762 219.351,136.955 219.175,136.900 218.900 C 136.845 218.625,137.070 218.400,137.400 218.400 C 137.987 218.400,138.170 217.946,138.021 216.860 C 137.980 216.563,138.139 216.438,138.373 216.583 C 138.608 216.729,138.800 216.560,138.800 216.210 C 138.800 215.612,139.871 213.644,140.437 213.200 C 140.944 212.803,141.256 211.200,140.827 211.200 C 140.592 211.200,140.400 211.455,140.400 211.767 M128.100 228.488 C 127.605 228.727,127.200 229.075,127.200 229.261 C 127.200 229.448,126.977 229.600,126.703 229.600 C 126.076 229.600,121.913 232.446,122.168 232.701 C 122.272 232.805,123.492 232.145,124.879 231.234 C 126.265 230.323,127.805 229.474,128.300 229.346 C 128.795 229.218,129.200 228.863,129.200 228.557 C 129.200 228.250,129.155 228.012,129.100 228.027 C 129.045 228.042,128.595 228.249,128.100 228.488 M239.214 339.974 C 238.705 340.924,238.671 342.400,239.158 342.400 C 239.355 342.400,239.585 341.680,239.669 340.800 C 239.842 338.982,239.793 338.893,239.214 339.974 M231.800 341.837 C 231.800 343.025,231.935 343.998,232.100 343.999 C 232.265 343.999,232.400 343.111,232.400 342.024 C 232.400 340.937,232.265 339.964,232.100 339.862 C 231.935 339.760,231.800 340.648,231.800 341.837 M396.800 391.216 C 395.370 391.388,390.600 391.820,386.200 392.174 C 381.800 392.529,376.760 392.996,375.000 393.211 C 373.240 393.426,369.550 393.785,366.800 394.009 C 364.050 394.232,359.910 394.592,357.600 394.808 C 355.290 395.025,351.330 395.378,348.800 395.594 C 346.270 395.810,343.570 396.080,342.800 396.196 C 342.030 396.311,339.150 396.584,336.400 396.801 C 331.845 397.161,327.126 397.594,314.600 398.803 C 312.180 399.036,307.320 399.501,303.800 399.834 C 295.812 400.592,291.854 400.985,284.000 401.800 C 280.590 402.154,276.180 402.598,274.200 402.787 C 265.131 403.654,261.167 404.056,258.200 404.410 C 244.194 406.080,239.653 406.256,238.973 405.156 C 238.530 404.440,235.878 403.600,234.051 403.598 C 230.874 403.594,228.322 402.590,229.554 401.829 C 229.749 401.708,229.987 401.072,230.083 400.415 C 230.220 399.485,230.146 399.313,229.753 399.639 C 229.475 399.870,229.357 400.345,229.492 400.695 C 229.643 401.088,229.573 401.231,229.310 401.068 C 228.490 400.561,228.353 402.131,229.148 402.926 C 229.729 403.507,230.776 403.783,233.264 404.012 C 236.599 404.319,238.800 404.993,238.800 405.708 C 238.800 405.918,238.221 405.981,237.500 405.849 C 231.511 404.752,229.508 404.645,227.600 405.323 C 225.619 406.026,222.800 406.237,222.800 405.681 C 222.800 405.249,217.435 405.605,217.267 406.048 C 217.193 406.242,216.769 406.400,216.324 406.400 C 215.879 406.400,214.439 406.679,213.123 407.020 C 211.388 407.469,210.587 407.521,210.208 407.207 C 209.618 406.717,203.200 407.104,203.200 407.630 C 203.200 407.803,202.650 407.786,201.977 407.593 C 200.743 407.240,200.119 407.329,198.529 408.088 C 198.050 408.317,197.150 408.380,196.529 408.227 C 195.908 408.075,194.383 407.803,193.140 407.623 C 190.201 407.199,189.937 407.018,190.415 405.760 C 191.036 404.127,190.914 403.216,190.200 404.159 C 189.884 404.576,189.720 405.071,189.836 405.259 C 189.952 405.447,189.857 405.600,189.624 405.600 C 187.713 405.600,190.196 407.757,192.368 407.985 C 195.452 408.308,194.835 408.972,191.227 409.214 C 189.474 409.331,187.896 409.578,187.720 409.763 C 187.544 409.947,188.570 409.982,190.000 409.840 C 191.430 409.697,194.130 409.500,196.000 409.400 C 197.870 409.301,200.300 409.015,201.400 408.765 C 202.500 408.515,205.650 408.167,208.400 407.992 C 211.150 407.817,214.210 407.456,215.200 407.190 C 216.190 406.924,218.890 406.669,221.200 406.624 C 223.766 406.574,226.258 406.281,227.605 405.870 C 229.637 405.251,235.144 405.411,235.842 406.109 C 236.047 406.313,236.211 406.294,214.600 408.579 C 211.300 408.928,207.236 409.395,205.568 409.616 C 200.713 410.262,196.211 410.781,190.000 411.411 C 186.810 411.734,182.760 412.169,181.000 412.377 C 179.240 412.585,176.180 412.937,174.200 413.158 C 159.984 414.748,150.229 416.044,149.801 416.399 C 149.524 416.629,147.700 416.978,145.749 417.175 C 141.447 417.609,130.437 418.960,119.200 420.434 C 117.330 420.679,114.360 421.029,112.600 421.211 C 110.840 421.393,107.150 421.836,104.400 422.195 C 101.650 422.554,98.140 423.010,96.600 423.207 C 95.060 423.404,91.730 423.852,89.200 424.202 C 86.670 424.552,83.160 425.007,81.400 425.214 C 79.640 425.421,76.130 425.867,73.600 426.206 C 71.070 426.545,67.470 427.000,65.600 427.217 C 63.730 427.435,61.930 427.712,61.600 427.833 C 61.270 427.954,58.210 428.216,54.800 428.415 C 51.390 428.614,45.900 428.964,42.600 429.193 C 34.186 429.777,18.654 430.747,10.600 431.192 C 6.860 431.398,2.945 431.681,1.900 431.821 L 0.000 432.075 0.000 433.838 L 0.000 435.600 161.636 435.600 L 323.272 435.600 323.971 434.736 C 324.384 434.226,324.869 433.995,325.155 434.172 C 325.511 434.392,325.522 434.612,325.197 435.004 C 324.634 435.682,349.374 435.885,350.188 435.210 C 350.459 434.985,351.473 434.733,352.440 434.650 C 353.408 434.568,353.795 434.579,353.300 434.677 C 349.653 435.392,354.801 435.600,376.186 435.600 L 399.972 435.600 399.986 413.200 C 399.994 400.880,399.865 390.823,399.700 390.851 C 399.535 390.879,398.230 391.043,396.800 391.216 M231.301 394.600 C 231.305 395.480,231.387 395.793,231.483 395.295 C 231.579 394.798,231.575 394.078,231.475 393.695 C 231.375 393.313,231.296 393.720,231.301 394.600 M377.368 400.393 C 377.152 400.608,376.351 400.880,375.588 400.996 L 374.200 401.208 375.400 400.622 C 376.806 399.936,377.959 399.801,377.368 400.393 M179.000 410.006 C 177.680 410.182,176.037 410.504,175.350 410.721 C 174.662 410.938,172.188 411.124,169.852 411.133 C 167.002 411.145,165.357 411.325,164.850 411.680 C 163.899 412.346,172.268 412.212,174.200 411.530 C 174.860 411.297,177.920 411.018,181.000 410.910 C 184.080 410.802,186.780 410.543,187.000 410.333 C 187.256 410.089,186.679 409.971,185.400 410.006 C 184.300 410.036,182.950 409.976,182.400 409.873 C 181.850 409.769,180.320 409.829,179.000 410.006 M382.979 414.761 C 383.712 415.048,383.704 415.079,382.840 415.305 C 381.762 415.587,380.710 415.270,381.026 414.758 C 381.286 414.338,381.899 414.338,382.979 414.761 M333.268 419.442 C 334.100 419.956,333.005 420.437,331.559 420.193 C 330.541 420.021,330.000 420.081,330.000 420.365 C 330.000 421.025,328.518 420.885,328.255 420.200 C 328.129 419.870,327.730 419.600,327.370 419.600 C 326.958 419.600,326.798 419.818,326.940 420.187 C 327.203 420.874,326.573 421.404,326.204 420.807 C 325.877 420.278,322.923 420.278,322.596 420.806 C 322.255 421.358,319.694 422.400,318.680 422.400 C 317.675 422.400,315.453 423.074,313.689 423.914 C 312.686 424.391,312.268 424.428,311.909 424.069 C 311.651 423.811,311.071 423.593,310.620 423.584 C 309.241 423.557,311.514 422.510,313.614 422.205 C 315.390 421.946,319.283 421.104,322.046 420.379 C 322.842 420.171,324.021 420.000,324.666 420.000 C 325.312 420.000,326.011 419.832,326.220 419.627 C 326.945 418.915,332.193 418.778,333.268 419.442 M384.400 422.753 C 384.400 422.948,383.950 423.193,383.400 423.298 C 382.431 423.483,382.119 423.214,382.667 422.667 C 383.059 422.275,384.400 422.342,384.400 422.753 M254.300 425.476 C 253.915 425.576,253.285 425.576,252.900 425.476 C 252.515 425.375,252.830 425.293,253.600 425.293 C 254.370 425.293,254.685 425.375,254.300 425.476 M367.600 426.400 C 367.600 426.620,366.959 426.800,366.176 426.800 C 365.329 426.800,364.853 426.638,365.000 426.400 C 365.136 426.180,365.777 426.000,366.424 426.000 C 367.071 426.000,367.600 426.180,367.600 426.400 M356.000 428.336 C 356.000 428.962,353.971 429.600,351.981 429.600 C 348.553 429.600,349.620 428.603,353.400 428.274 C 354.280 428.197,355.225 428.104,355.500 428.067 C 355.775 428.030,356.000 428.151,356.000 428.336 M300.308 428.875 C 300.061 429.617,299.200 429.740,299.200 429.033 C 299.200 428.685,299.485 428.400,299.833 428.400 C 300.182 428.400,300.395 428.614,300.308 428.875 M292.600 430.000 C 292.464 430.220,292.083 430.400,291.753 430.400 C 291.423 430.400,291.264 430.220,291.400 430.000 C 291.536 429.780,291.917 429.600,292.247 429.600 C 292.577 429.600,292.736 429.780,292.600 430.000 M370.800 431.176 C 370.800 431.648,370.020 432.153,369.733 431.867 C 369.447 431.580,369.952 430.800,370.424 430.800 C 370.631 430.800,370.800 430.969,370.800 431.176 M367.600 432.136 C 367.600 432.698,362.168 433.901,361.708 433.441 C 361.575 433.308,361.821 433.200,362.253 433.200 C 362.686 433.200,363.214 433.026,363.427 432.813 C 363.640 432.600,364.531 432.258,365.407 432.053 C 367.613 431.537,367.600 431.536,367.600 432.136 M145.200 433.017 C 142.396 433.717,142.018 433.712,142.976 432.987 C 143.417 432.654,144.542 432.415,145.576 432.434 L 147.400 432.468 145.200 433.017 M357.200 434.000 C 357.650 434.291,357.450 434.388,356.400 434.388 C 355.350 434.388,355.150 434.291,355.600 434.000 C 355.930 433.787,356.290 433.612,356.400 433.612 C 356.510 433.612,356.870 433.787,357.200 434.000 " stroke="none" fill="#9e952e" fill-rule="evenodd"></path><path id="path3" d="M156.916 32.012 C 147.223 33.031,134.119 39.048,127.807 45.376 C 118.144 55.065,113.954 62.883,110.592 77.500 C 110.415 78.270,110.111 78.405,108.492 78.438 C 105.839 78.491,98.248 79.488,100.200 79.527 C 103.779 79.599,110.506 78.875,110.808 78.387 C 110.979 78.110,111.331 76.785,111.591 75.442 C 114.898 58.335,128.062 41.985,143.179 36.208 C 150.910 33.254,163.139 31.394,169.816 32.157 C 180.639 33.394,188.671 36.164,196.200 41.258 C 198.936 43.109,201.507 44.510,203.000 44.964 C 205.610 45.756,210.171 47.994,209.200 48.005 C 208.270 48.016,209.587 48.786,210.549 48.794 C 211.186 48.799,211.220 48.706,210.774 48.169 C 209.848 47.053,203.104 44.001,201.562 44.000 C 201.212 44.000,198.962 42.624,196.562 40.943 C 191.033 37.068,185.522 34.509,180.800 33.623 C 179.590 33.395,176.800 32.848,174.600 32.406 C 170.381 31.559,162.827 31.390,156.916 32.012 M158.600 34.213 C 152.161 34.958,143.657 37.446,139.348 39.848 C 136.541 41.412,129.187 46.734,127.921 48.118 C 123.022 53.472,118.515 60.583,116.048 66.851 C 113.788 72.594,112.793 77.822,114.634 74.286 C 115.728 72.182,116.127 72.173,116.986 74.227 C 117.685 75.900,117.850 75.909,120.280 74.399 C 122.276 73.157,126.208 72.087,127.271 72.495 C 127.749 72.679,127.927 73.805,128.117 77.864 C 128.831 93.047,134.307 107.942,142.578 117.200 L 145.973 121.000 145.736 128.400 L 145.499 135.800 147.249 136.486 C 150.093 137.600,159.337 139.200,162.933 139.200 C 164.267 139.200,164.302 139.703,163.017 140.391 C 161.583 141.159,153.380 140.284,149.785 138.980 C 146.811 137.901,145.388 137.707,147.600 138.682 C 149.802 139.653,154.072 140.800,155.482 140.800 C 156.189 140.800,158.137 141.004,159.812 141.253 L 162.856 141.706 162.698 182.953 C 162.535 225.663,162.559 225.060,160.887 229.000 C 160.085 230.889,159.389 231.694,152.788 238.372 C 132.109 259.288,128.199 268.979,132.623 288.347 C 132.742 288.868,132.927 289.206,133.035 289.098 C 133.143 288.990,132.949 287.574,132.604 285.951 C 131.066 278.725,131.126 270.399,132.744 266.400 C 133.433 264.699,133.320 267.479,132.604 269.836 C 130.816 275.732,133.312 288.996,138.922 303.400 C 149.121 329.591,164.073 340.676,184.000 336.821 C 187.120 336.218,204.584 336.223,207.000 336.828 C 207.880 337.048,213.135 337.379,218.678 337.562 C 227.507 337.855,228.944 337.994,230.278 338.683 C 231.431 339.278,232.091 339.386,233.000 339.126 C 233.660 338.938,235.467 338.814,237.016 338.851 C 238.606 338.889,240.231 338.705,240.747 338.428 C 241.492 338.030,241.957 338.056,243.239 338.569 C 248.622 340.723,260.508 337.880,268.200 332.599 C 273.914 328.676,274.372 328.593,269.900 332.291 C 266.316 335.254,261.669 337.670,256.200 339.411 C 255.320 339.692,254.930 339.939,255.333 339.960 C 256.113 340.002,260.076 338.487,264.452 336.474 C 267.446 335.096,272.262 331.399,275.751 327.800 C 277.487 326.010,280.542 321.448,281.482 319.245 C 281.820 318.450,282.270 317.464,282.481 317.054 C 285.767 310.660,287.336 288.679,285.599 273.392 L 285.128 269.246 286.481 267.474 C 293.850 257.823,301.764 257.757,317.424 267.215 C 324.390 271.421,325.468 271.323,330.080 266.059 C 337.003 258.156,348.876 242.941,351.593 238.490 C 354.139 234.318,353.196 233.729,340.000 231.245 C 335.050 230.313,330.280 229.394,329.400 229.203 C 327.896 228.877,325.657 228.484,316.700 226.977 C 314.665 226.635,312.010 226.185,310.800 225.977 C 299.000 223.950,283.873 222.753,276.400 223.255 C 274.310 223.396,269.793 223.531,266.362 223.555 C 252.986 223.651,244.253 224.599,238.000 226.632 C 233.568 228.073,229.041 228.515,223.799 228.018 C 221.380 227.788,216.520 227.602,213.000 227.604 C 207.414 227.608,200.661 227.267,192.172 226.555 C 189.834 226.359,189.725 226.300,189.246 224.976 C 188.035 221.628,187.380 136.800,188.564 136.800 C 193.188 136.800,207.047 124.639,212.268 116.000 C 213.805 113.458,214.081 112.914,216.129 108.400 C 220.640 98.456,221.767 81.396,218.581 71.267 C 218.258 70.240,217.803 68.770,217.569 68.000 C 216.730 65.236,216.293 64.400,215.689 64.400 C 215.145 64.400,215.143 64.478,215.672 65.100 C 216.521 66.097,216.884 67.131,218.587 73.400 C 221.953 85.797,219.088 103.813,211.843 115.800 C 206.717 124.281,194.921 134.707,188.754 136.205 C 186.857 136.666,186.950 135.020,188.863 134.268 C 193.075 132.614,202.135 126.059,205.114 122.511 C 212.558 113.647,215.329 107.947,217.422 97.200 C 219.468 86.695,218.068 70.938,214.732 66.919 C 214.512 66.653,214.468 66.202,214.634 65.918 C 214.801 65.633,214.559 65.732,214.096 66.138 C 213.633 66.543,213.336 67.090,213.437 67.352 C 213.836 68.391,208.176 74.968,204.686 77.521 C 198.364 82.147,187.546 83.679,178.252 81.265 C 176.084 80.702,171.309 78.297,171.941 78.086 C 172.228 77.991,171.414 77.288,170.131 76.525 C 162.105 71.750,160.464 62.687,166.506 56.500 C 167.419 55.565,168.052 54.800,167.912 54.800 C 167.772 54.800,167.374 55.083,167.029 55.429 C 166.683 55.774,166.400 55.880,166.400 55.664 C 166.400 55.048,170.531 51.038,172.613 49.633 C 177.741 46.172,183.671 44.183,191.000 43.465 L 195.800 42.995 193.400 41.353 C 184.829 35.489,171.399 32.734,158.600 34.213 M175.069 35.482 C 178.444 37.693,177.751 39.352,170.462 46.508 C 165.384 51.494,165.240 51.600,163.493 51.600 C 160.466 51.600,158.646 49.092,159.592 46.223 C 159.989 45.021,163.944 39.440,164.858 38.791 C 165.020 38.676,165.896 37.956,166.804 37.191 C 169.392 35.011,173.161 34.232,175.069 35.482 M166.142 36.900 C 165.975 37.175,165.448 37.710,164.971 38.088 C 164.494 38.466,163.414 39.681,162.570 40.788 C 160.856 43.035,159.930 43.289,158.254 41.971 C 155.411 39.735,158.989 36.462,164.324 36.418 C 165.922 36.404,166.372 36.524,166.142 36.900 M57.156 69.915 C 55.261 70.292,53.412 70.851,53.046 71.157 C 52.100 71.949,52.551 72.178,53.665 71.471 C 58.293 68.535,72.383 69.443,74.890 72.838 C 75.391 73.516,76.520 74.414,77.400 74.834 C 78.280 75.255,79.990 76.139,81.200 76.799 C 82.885 77.718,83.869 77.988,85.400 77.949 L 87.400 77.898 84.807 77.502 C 83.022 77.229,81.555 76.684,80.099 75.753 C 78.936 75.009,77.787 74.400,77.546 74.400 C 77.304 74.400,76.446 73.698,75.639 72.841 C 72.398 69.400,65.351 68.284,57.156 69.915 M36.600 72.188 C 36.380 72.257,35.120 72.626,33.800 73.007 C 31.501 73.672,28.779 75.622,28.816 76.578 C 28.825 76.810,29.324 76.426,29.925 75.725 C 31.190 74.248,32.211 73.800,36.600 72.798 C 38.768 72.303,39.348 72.067,38.400 72.065 C 37.630 72.064,36.820 72.119,36.600 72.188 M88.305 78.283 C 88.802 78.379,89.522 78.375,89.905 78.275 C 90.287 78.175,89.880 78.096,89.000 78.101 C 88.120 78.105,87.807 78.187,88.305 78.283 M91.633 78.550 C 91.725 78.632,92.880 78.800,94.200 78.923 C 95.778 79.070,96.189 79.035,95.400 78.820 C 94.166 78.485,91.336 78.282,91.633 78.550 M25.570 80.236 C 24.346 81.710,22.402 85.019,22.425 85.587 C 22.440 85.951,22.598 85.833,22.815 85.293 C 23.015 84.795,23.910 83.310,24.804 81.993 C 26.341 79.731,26.729 78.839,25.570 80.236 M22.524 88.355 C 22.579 89.328,22.881 89.875,23.600 90.298 C 24.514 90.837,24.536 90.834,23.854 90.266 C 23.444 89.924,22.960 89.050,22.778 88.322 L 22.449 87.000 22.524 88.355 M24.643 95.033 C 24.509 95.381,24.400 95.885,24.400 96.154 C 24.400 96.619,27.936 99.311,29.948 100.377 C 31.715 101.313,30.430 100.111,27.808 98.375 C 25.217 96.659,25.043 96.442,25.179 95.100 C 25.268 94.228,24.966 94.190,24.643 95.033 M32.800 103.090 C 32.800 103.313,33.559 104.464,34.486 105.648 C 38.032 110.176,42.189 115.408,42.392 115.600 C 42.509 115.710,43.078 116.430,43.657 117.200 C 45.474 119.617,46.579 120.689,54.591 127.800 C 56.326 129.340,58.667 131.444,59.793 132.476 C 62.516 134.970,70.802 147.343,72.199 151.000 C 77.381 164.562,77.435 164.730,81.412 179.600 C 82.418 183.359,82.844 184.667,83.824 187.000 C 84.101 187.660,85.797 191.889,87.592 196.397 C 89.838 202.039,91.929 206.466,94.300 210.597 C 99.020 218.823,99.461 219.498,100.474 220.040 C 101.159 220.406,101.047 220.146,99.980 218.892 C 99.221 218.000,98.242 216.579,97.803 215.735 C 97.365 214.891,95.739 212.040,94.190 209.400 C 92.641 206.760,91.128 203.970,90.827 203.200 C 90.526 202.430,90.053 201.260,89.776 200.600 C 85.776 191.077,82.885 182.933,80.829 175.400 C 77.812 164.345,76.896 161.539,73.252 152.200 C 72.566 150.440,72.003 148.876,72.002 148.725 C 72.001 148.574,70.797 146.684,69.327 144.525 C 67.857 142.366,65.621 139.063,64.358 137.184 C 62.327 134.163,51.518 123.679,47.555 120.886 C 46.897 120.423,37.996 109.525,34.287 104.642 C 33.469 103.566,32.800 102.867,32.800 103.090 M145.302 146.400 C 145.296 149.590,145.420 154.540,145.578 157.400 C 145.848 162.300,145.866 162.091,145.893 153.800 C 145.908 148.960,145.784 144.010,145.617 142.800 C 145.389 141.152,145.310 142.054,145.302 146.400 M146.165 171.600 C 146.184 178.415,146.249 179.311,146.549 176.909 C 146.768 175.152,146.758 171.935,146.525 168.709 L 146.141 163.400 146.165 171.600 M141.409 211.400 C 141.233 212.060,140.958 212.780,140.798 213.000 C 140.089 213.971,138.023 218.118,138.606 217.400 C 139.949 215.745,142.055 211.587,141.895 210.907 C 141.775 210.398,141.639 210.536,141.409 211.400 M133.985 222.900 C 129.889 227.958,129.849 228.010,128.221 230.208 C 127.573 231.084,126.853 231.932,126.621 232.094 C 126.344 232.288,126.369 232.390,126.697 232.394 C 126.970 232.397,128.483 230.645,130.060 228.500 C 131.636 226.355,133.833 223.520,134.941 222.200 C 136.050 220.880,137.219 219.485,137.540 219.100 C 137.861 218.715,138.013 218.400,137.876 218.400 C 137.740 218.400,135.989 220.425,133.985 222.900 M193.600 227.312 L 197.000 227.437 193.200 227.516 C 189.021 227.603,185.520 226.954,187.059 226.378 C 187.532 226.201,188.049 225.844,188.209 225.585 C 188.409 225.261,188.768 225.439,189.350 226.150 C 190.125 227.095,190.502 227.198,193.600 227.312 M233.105 228.675 C 232.722 228.775,232.002 228.779,231.505 228.683 C 231.007 228.587,231.320 228.505,232.200 228.501 C 233.080 228.496,233.487 228.575,233.105 228.675 M162.000 231.706 C 162.000 232.603,157.303 237.449,151.882 242.144 C 146.786 246.559,143.964 249.317,141.274 252.514 C 140.573 253.347,140.000 253.843,140.000 253.617 C 140.000 253.391,140.344 252.800,140.763 252.303 C 141.183 251.806,142.571 250.140,143.846 248.600 C 145.122 247.060,149.012 242.910,152.490 239.378 C 155.969 235.846,159.092 232.561,159.430 232.078 C 160.091 231.135,162.000 230.858,162.000 231.706 M122.600 233.042 L 120.600 233.588 122.779 233.370 C 124.932 233.154,127.155 232.382,125.400 232.460 C 124.960 232.479,123.700 232.741,122.600 233.042 M136.229 259.954 C 135.663 260.851,135.186 261.813,135.168 262.092 C 135.146 262.458,135.083 262.468,134.944 262.127 C 134.746 261.642,135.727 259.465,136.543 258.578 C 137.413 257.632,137.254 258.331,136.229 259.954 M285.077 271.900 C 285.630 274.548,285.464 303.858,284.878 307.000 C 284.247 310.383,283.128 314.124,282.019 316.557 C 281.569 317.547,281.200 318.501,281.199 318.678 C 281.197 319.482,277.038 325.803,275.452 327.411 C 273.323 329.570,272.445 329.826,274.458 327.700 C 275.239 326.875,276.400 325.480,277.037 324.600 C 277.674 323.720,278.289 322.910,278.402 322.800 C 278.880 322.339,281.941 315.643,282.517 313.800 C 284.941 306.044,285.814 293.190,284.804 280.122 C 284.092 270.899,284.072 270.400,284.420 270.400 C 284.609 270.400,284.905 271.075,285.077 271.900 M133.442 291.000 C 133.736 293.044,137.562 304.712,138.886 307.600 C 139.441 308.810,140.314 310.790,140.826 312.000 C 145.750 323.637,158.520 336.025,167.400 337.780 C 168.803 338.057,168.979 338.153,163.200 335.494 C 149.824 329.340,141.629 317.132,134.001 292.000 C 133.442 290.161,133.279 289.868,133.442 291.000 M168.912 338.229 C 169.415 338.758,174.473 339.982,176.000 339.945 C 177.030 339.919,176.713 339.782,174.800 339.426 C 173.370 339.160,171.750 338.806,171.200 338.639 C 169.071 337.995,168.611 337.912,168.912 338.229 M180.200 340.416 C 185.453 341.128,192.800 344.108,192.800 345.527 C 192.800 345.704,194.285 345.842,196.100 345.833 C 197.915 345.824,199.850 345.851,200.400 345.894 C 200.950 345.937,205.630 345.831,210.800 345.660 L 220.200 345.348 211.326 345.274 C 205.864 345.228,202.019 345.027,201.326 344.750 C 200.707 344.503,198.349 344.232,196.086 344.150 C 193.304 344.048,191.672 343.804,191.048 343.395 C 188.916 341.998,183.381 340.328,180.400 340.182 L 177.400 340.036 180.200 340.416 M250.800 340.453 C 247.631 340.970,247.389 341.239,250.327 340.978 C 252.813 340.758,255.628 340.023,253.800 340.072 C 253.360 340.084,252.010 340.255,250.800 340.453 M244.600 341.406 C 244.380 341.485,243.151 341.756,241.868 342.010 C 240.586 342.263,239.627 342.560,239.737 342.671 C 239.848 342.781,240.897 342.676,242.069 342.437 C 243.241 342.198,245.010 341.841,246.000 341.644 C 247.692 341.307,247.716 341.285,246.400 341.274 C 245.630 341.268,244.820 341.328,244.600 341.406 M228.200 344.267 C 227.760 344.354,225.960 344.590,224.200 344.793 L 221.000 345.160 224.822 344.996 C 226.925 344.906,229.085 344.656,229.622 344.441 C 230.673 344.021,229.915 343.928,228.200 344.267 M192.893 387.600 C 192.893 388.370,192.975 388.685,193.076 388.300 C 193.176 387.915,193.176 387.285,193.076 386.900 C 192.975 386.515,192.893 386.830,192.893 387.600 M231.693 387.600 C 231.693 388.370,231.775 388.685,231.876 388.300 C 231.976 387.915,231.976 387.285,231.876 386.900 C 231.775 386.515,231.693 386.830,231.693 387.600 M228.487 400.968 C 228.018 401.999,225.164 403.871,222.811 404.693 C 221.465 405.163,221.456 405.178,222.618 405.019 C 225.207 404.665,229.991 401.058,229.080 400.147 C 228.997 400.064,228.731 400.434,228.487 400.968 M189.600 404.405 C 189.600 404.702,188.745 405.747,187.700 406.729 C 185.934 408.388,186.327 408.518,188.253 406.911 C 189.245 406.085,190.170 404.437,189.832 404.099 C 189.705 403.971,189.600 404.109,189.600 404.405 M213.331 405.759 C 211.752 406.002,210.363 406.299,210.244 406.420 C 210.032 406.634,218.000 405.774,219.200 405.453 C 220.483 405.110,216.049 405.342,213.331 405.759 M201.578 407.333 C 201.758 407.516,202.692 407.489,203.653 407.274 L 205.400 406.882 203.326 406.941 C 202.185 406.974,201.398 407.150,201.578 407.333 M183.200 408.800 C 182.413 409.309,183.816 409.309,185.000 408.800 C 185.733 408.485,185.716 408.454,184.800 408.434 C 184.250 408.422,183.530 408.587,183.200 408.800 M174.528 409.754 C 172.729 409.999,171.160 410.299,171.041 410.420 C 170.849 410.617,178.208 409.849,180.200 409.464 C 182.013 409.113,177.557 409.341,174.528 409.754 " stroke="none" fill="#4464b8" fill-rule="evenodd"></path><path id="path4" d="M159.600 32.389 C 136.268 33.999,117.125 50.901,111.793 74.600 C 111.446 76.140,111.069 77.715,110.954 78.100 C 110.665 79.073,113.121 79.053,115.116 78.066 C 115.932 77.662,117.635 77.016,118.900 76.629 C 121.695 75.774,121.989 74.983,119.378 75.341 C 117.595 75.585,117.543 75.561,116.984 74.223 C 116.127 72.173,115.728 72.183,114.634 74.286 C 112.793 77.822,113.788 72.594,116.048 66.851 C 118.515 60.583,123.022 53.472,127.921 48.118 C 129.190 46.732,136.543 41.411,139.358 39.842 C 154.555 31.374,179.848 32.081,193.400 41.353 L 195.800 42.995 191.000 43.465 C 181.390 44.406,174.058 47.551,168.567 53.086 C 166.362 55.308,165.496 56.871,167.497 55.015 C 169.246 53.393,169.384 53.783,169.621 61.032 C 169.824 67.266,169.942 68.100,171.119 71.600 C 172.904 76.911,173.058 77.889,172.138 78.078 C 171.265 78.257,175.829 80.635,178.252 81.265 C 187.608 83.695,198.278 82.161,204.800 77.448 C 208.576 74.720,214.061 68.048,213.301 67.110 C 213.074 66.829,212.136 64.669,211.217 62.308 C 209.477 57.839,209.301 57.588,201.900 49.008 C 198.050 44.544,198.097 44.501,204.572 46.600 C 206.947 47.370,209.096 48.000,209.346 47.999 C 210.214 47.998,205.386 45.688,203.000 44.964 C 201.507 44.510,198.936 43.109,196.200 41.258 C 185.798 34.221,174.106 31.387,159.600 32.389 M170.128 35.339 C 169.208 35.593,167.712 36.426,166.804 37.191 C 165.896 37.956,165.020 38.676,164.858 38.791 C 163.944 39.440,159.989 45.021,159.592 46.223 C 158.646 49.092,160.466 51.600,163.493 51.600 C 165.350 51.600,174.195 43.768,176.440 40.135 C 178.497 36.807,174.851 34.038,170.128 35.339 M214.857 65.657 C 214.525 66.189,214.486 66.622,214.744 66.932 C 218.068 70.938,219.464 86.713,217.422 97.200 C 215.329 107.947,212.558 113.647,205.114 122.511 C 202.135 126.059,193.075 132.614,188.863 134.268 C 186.950 135.020,186.857 136.666,188.754 136.205 C 194.921 134.707,206.717 124.281,211.843 115.800 C 219.088 103.812,221.958 85.763,218.584 73.400 C 216.319 65.099,215.834 64.093,214.857 65.657 M61.600 69.835 C 61.050 69.927,59.262 70.200,57.626 70.442 C 52.761 71.162,52.303 71.683,55.900 72.405 C 57.165 72.659,58.576 72.954,59.037 73.061 C 59.564 73.183,60.325 72.875,61.094 72.227 C 61.889 71.559,62.785 71.205,63.658 71.214 C 66.026 71.239,71.750 72.261,73.361 72.946 C 76.117 74.119,75.290 72.274,72.400 70.802 C 71.009 70.093,63.876 69.455,61.600 69.835 M33.225 73.714 C 31.808 74.201,30.578 74.825,30.491 75.100 C 30.253 75.854,30.915 75.715,33.682 74.434 C 35.067 73.792,36.470 73.176,36.800 73.065 C 37.210 72.927,37.147 72.858,36.600 72.846 C 36.160 72.836,34.641 73.227,33.225 73.714 M50.100 80.698 C 45.557 80.842,45.115 81.180,47.781 82.476 C 49.435 83.279,49.684 83.300,51.281 82.770 C 53.748 81.952,67.440 82.025,74.000 82.891 C 81.346 83.861,84.083 84.058,83.798 83.596 C 83.663 83.378,82.931 83.200,82.171 83.200 C 81.411 83.200,78.137 82.761,74.895 82.224 C 69.839 81.386,56.419 80.228,54.749 80.484 C 54.447 80.531,52.355 80.627,50.100 80.698 M36.400 84.656 C 34.444 85.326,32.938 86.416,34.014 86.381 C 34.676 86.360,39.221 84.038,38.600 84.038 C 38.380 84.038,37.390 84.316,36.400 84.656 M85.907 84.290 C 86.626 84.379,87.706 84.377,88.307 84.286 C 88.908 84.195,88.320 84.122,87.000 84.124 C 85.680 84.126,85.188 84.201,85.907 84.290 M22.986 87.623 C 22.408 88.558,23.181 89.896,24.445 90.149 C 29.037 91.067,31.566 89.286,27.646 87.894 C 25.443 87.112,23.376 86.991,22.986 87.623 M25.080 95.336 C 24.745 96.208,29.833 100.400,31.225 100.400 C 31.394 100.400,32.060 101.255,32.706 102.300 C 33.964 104.334,44.724 118.000,45.067 118.000 C 45.390 118.000,41.847 111.589,37.753 104.767 C 34.236 98.907,33.105 97.600,31.549 97.600 C 31.321 97.600,29.880 96.970,28.346 96.200 C 25.128 94.585,25.346 94.643,25.080 95.336 M54.814 127.329 C 55.136 127.620,56.900 129.188,58.732 130.815 C 61.166 132.975,62.878 134.989,65.083 138.286 C 67.981 142.620,69.459 144.426,67.549 141.300 C 63.703 135.007,62.333 133.253,59.197 130.600 C 57.376 129.060,55.655 127.575,55.372 127.300 C 55.089 127.025,54.716 126.800,54.543 126.800 C 54.370 126.800,54.492 127.038,54.814 127.329 M145.665 136.771 C 146.073 139.432,164.000 142.189,164.000 139.590 C 164.000 139.439,162.875 139.197,161.500 139.053 C 155.181 138.387,150.451 137.629,148.800 137.016 C 145.531 135.801,145.516 135.800,145.665 136.771 M144.644 146.600 C 144.475 147.700,144.072 149.680,143.749 151.000 C 143.198 153.257,143.239 154.030,144.447 164.000 C 145.855 175.610,146.524 178.117,146.151 170.376 C 146.019 167.639,145.695 160.720,145.432 155.000 C 145.074 147.253,144.874 145.110,144.644 146.600 M139.492 214.458 C 139.112 215.122,138.800 215.873,138.800 216.126 C 138.800 216.380,139.171 215.897,139.624 215.051 C 140.603 213.225,140.491 212.719,139.492 214.458 M97.200 214.296 C 97.200 214.563,97.559 215.370,97.999 216.090 C 99.034 217.788,99.035 217.235,98.000 215.304 C 97.560 214.484,97.200 214.030,97.200 214.296 M188.209 225.585 C 188.049 225.844,187.532 226.201,187.059 226.378 C 185.520 226.954,189.021 227.603,193.200 227.516 L 197.000 227.437 193.600 227.312 C 190.502 227.198,190.125 227.095,189.350 226.150 C 188.768 225.439,188.409 225.261,188.209 225.585 M231.505 228.683 C 232.002 228.779,232.722 228.775,233.105 228.675 C 233.487 228.575,233.080 228.496,232.200 228.501 C 231.320 228.505,231.007 228.587,231.505 228.683 M126.400 230.271 C 122.441 232.611,122.168 233.160,125.330 232.426 C 126.777 232.090,127.481 231.514,128.421 229.900 C 128.980 228.939,128.508 229.026,126.400 230.271 M159.430 232.078 C 159.092 232.561,155.969 235.846,152.490 239.378 C 149.012 242.910,145.122 247.060,143.846 248.600 C 142.571 250.140,141.183 251.806,140.763 252.303 C 140.344 252.800,140.000 253.391,140.000 253.617 C 140.000 253.843,140.573 253.347,141.274 252.514 C 143.964 249.317,146.786 246.559,151.882 242.144 C 157.303 237.449,162.000 232.603,162.000 231.706 C 162.000 230.858,160.091 231.135,159.430 232.078 M136.543 258.578 C 135.727 259.465,134.746 261.642,134.944 262.127 C 135.083 262.468,135.146 262.458,135.168 262.092 C 135.186 261.813,135.663 260.851,136.229 259.954 C 137.254 258.331,137.413 257.632,136.543 258.578 M132.518 267.200 C 130.257 275.649,131.561 285.655,136.932 301.045 C 145.740 326.286,158.542 337.960,179.649 340.000 C 183.423 340.364,188.923 342.002,191.048 343.395 C 191.670 343.802,193.314 344.051,196.086 344.157 C 198.349 344.243,200.801 344.536,201.535 344.808 C 205.456 346.260,231.691 344.568,231.935 342.848 C 232.557 338.446,231.394 337.984,218.627 337.561 C 213.112 337.378,207.880 337.048,207.000 336.828 C 204.584 336.223,187.120 336.218,184.000 336.821 C 164.073 340.676,149.121 329.591,138.922 303.400 C 133.271 288.889,130.842 275.908,132.627 269.766 C 132.972 268.580,133.197 267.112,133.127 266.505 C 133.016 265.537,132.940 265.623,132.518 267.200 M284.242 272.700 C 284.334 273.965,284.587 277.305,284.804 280.122 C 285.814 293.190,284.941 306.044,282.517 313.800 C 281.941 315.643,278.880 322.339,278.402 322.800 C 278.289 322.910,277.674 323.720,277.037 324.600 C 276.400 325.480,275.239 326.875,274.458 327.700 C 272.445 329.826,273.323 329.570,275.452 327.411 C 277.038 325.803,281.197 319.482,281.199 318.678 C 281.200 318.501,281.569 317.547,282.019 316.557 C 283.128 314.124,284.247 310.383,284.878 307.000 C 285.464 303.858,285.630 274.548,285.077 271.900 C 284.597 269.600,284.056 270.119,284.242 272.700 M268.565 332.332 C 260.581 337.834,248.619 340.806,243.338 338.600 C 241.500 337.832,241.359 337.841,240.400 338.800 C 239.196 340.004,239.270 342.565,240.500 342.272 C 241.720 341.981,245.383 341.343,250.200 340.582 C 255.932 339.676,259.686 338.441,265.000 335.715 C 266.710 334.837,272.800 330.177,272.800 329.746 C 272.800 329.443,272.431 329.668,268.565 332.332 M227.380 402.758 C 227.171 402.955,226.055 403.604,224.900 404.200 C 221.454 405.979,223.434 406.802,227.600 405.323 C 229.508 404.645,231.511 404.752,237.500 405.849 C 238.221 405.981,238.800 405.918,238.800 405.708 C 238.800 404.995,236.603 404.319,233.293 404.015 C 231.144 403.817,229.732 403.481,229.261 403.055 C 228.445 402.316,227.934 402.236,227.380 402.758 M212.000 406.360 C 211.010 406.492,210.255 406.780,210.322 407.000 C 210.470 407.486,211.406 407.413,214.800 406.649 C 217.690 405.998,216.012 405.825,212.000 406.360 M187.254 407.598 C 186.294 408.249,184.899 408.895,184.154 409.035 C 181.179 409.593,182.918 410.435,186.000 409.928 C 187.210 409.729,189.640 409.439,191.400 409.283 C 195.068 408.959,195.604 408.301,192.457 407.985 C 191.088 407.847,190.132 407.522,189.813 407.085 C 189.183 406.224,189.322 406.197,187.254 407.598 M173.000 410.294 C 172.120 410.382,171.229 410.621,171.020 410.827 C 170.450 411.387,173.921 411.231,175.800 410.611 L 177.400 410.084 176.000 410.109 C 175.230 410.123,173.880 410.206,173.000 410.294 " stroke="none" fill="#11151d" fill-rule="evenodd"></path></g></svg>